<svg xmlns="http://www.w3.org/2000/svg" viewBox="0 0 308.14 94.34"><defs><style>.cls-1{fill:#00eee1;}.cls-2{fill:#8a10c9;}.cls-3{fill:#e4e4e4;}</style></defs><title>Ativo 1</title><g id="Camada_2" data-name="Camada 2"><g id="Camada_1-2" data-name="Camada 1"><path class="cls-1" d="M24.47,36.84l5-1.45,1.6-.46a17.41,17.41,0,0,0-1.82-7.13A15.44,15.44,0,0,0,15.56,19C7,19,0,26.48,0,35.69S7,52.38,15.56,52.38a15.4,15.4,0,0,0,13.62-8.64L23.46,40.2a8.85,8.85,0,0,1-7.84,5,8.71,8.71,0,0,1-7.1-3.77l11.56-3.32ZM6.79,34.27A9.14,9.14,0,0,1,15.62,26a8.69,8.69,0,0,1,7,3.67L21,30.17l-3.71,1.07Z"/><path class="cls-2" d="M39.15,0,61,26.5,82.92,0V51.84H76v-33l-15,18-15-18v33H39.15Z"/><path class="cls-2" d="M136.49,51.84H129l-3.17-7.2H101.07l-3.17,7.2H90.41L113.45,0Zm-23-35.71L103.8,38.3h19.3Z"/><path class="cls-2" d="M179.11,1.15V53l-28.8-34.27V51.84H143.4V0l28.8,34.27V1.15Z"/><path class="cls-2" d="M218.28,32.83V1.15h6.91V31.68q0,9.65-4.61,15.12t-12.67,5.62q-8.14,0-12.71-5.51t-4.57-15.23V1.15h6.91V32.83q0,6,2.77,9.61a9.71,9.71,0,0,0,15.16,0Q218.28,38.81,218.28,32.83Z"/><path class="cls-2" d="M278.19,51.84H270.7l-3.17-7.2H242.76l-3.17,7.2h-7.49L255.15,0Zm-23-35.71L245.5,38.3h19.3Z"/><path class="cls-2" d="M292,1.15V45.5h16.13v6.34h-23V1.15Z"/><path class="cls-3" d="M0,62.89H6.05q7.46,0,11.66,4.37a15.68,15.68,0,0,1,4.2,11.18,15.43,15.43,0,0,1-4.24,11.13Q13.43,94,6.05,94H0ZM4.24,90.1H6.71a10.2,10.2,0,0,0,7.82-3.4,12.45,12.45,0,0,0,0-16.52,10.2,10.2,0,0,0-7.82-3.4H4.24Z"/><path class="cls-3" d="M30.83,67.17a15.28,15.28,0,0,1,11.22-4.64A15.84,15.84,0,0,1,58,78.43a15.91,15.91,0,0,1-15.9,15.9,15.21,15.21,0,0,1-11.22-4.68,15.84,15.84,0,0,1,0-22.48Zm3,19.74a11.42,11.42,0,0,0,16.52,0,12.33,12.33,0,0,0,0-17,11,11,0,0,0-8.26-3.49,11,11,0,0,0-8.26,3.49,12.33,12.33,0,0,0,0,17Z"/><path class="cls-3" d="M93.29,62.89v3.89H82.69V77.9h7.77v3.89H82.69v8.3h10.6V94H78.45V62.89Z"/><path class="cls-3" d="M108.88,74.37a22.78,22.78,0,0,1,6.85,4.15,8.21,8.21,0,0,1,2.3,6.14,9.79,9.79,0,0,1-2.65,6.71,9.11,9.11,0,0,1-7.07,3,9.86,9.86,0,0,1-6.93-2.43,14.28,14.28,0,0,1-3.14-3.58l2.47-3.22q3.31,5.34,7.69,5.34a5.06,5.06,0,0,0,3.89-1.68,5.61,5.61,0,0,0,1.5-3.93,4.73,4.73,0,0,0-1.3-3.42,13.79,13.79,0,0,0-4-2.63q-4.68-2.07-6.36-4.06a7.64,7.64,0,0,1-1.72-5.12,6.4,6.4,0,0,1,2.43-4.95,8.46,8.46,0,0,1,5.83-2.12,9.79,9.79,0,0,1,4.06.73,10.76,10.76,0,0,1,3.22,2.45l-2.47,3.14a6.45,6.45,0,0,0-4.9-2.43,4.22,4.22,0,0,0-2.74,1,2.89,2.89,0,0,0-1.19,2.3Q104.6,72.6,108.88,74.37Z"/><path class="cls-3" d="M121.56,66.77V62.89h17v3.89h-6.36V94h-4.24V66.77Z"/><path class="cls-3" d="M165.38,94h-4.59l-1.94-4.42H143.64L141.7,94h-4.59l14.13-31.8ZM151.24,72.07l-5.92,13.61h11.84Z"/><path class="cls-3" d="M170.77,89.65a15.84,15.84,0,0,1,0-22.48A15.28,15.28,0,0,1,182,62.53a14.29,14.29,0,0,1,9.19,3.18l-2.34,3.18A10.36,10.36,0,0,0,182,66.42a11,11,0,0,0-8.26,3.49,11.85,11.85,0,0,0-3.4,8.53,11.72,11.72,0,0,0,3.45,8.48A11,11,0,0,0,182,90.45a10.29,10.29,0,0,0,6.78-2.32,11.42,11.42,0,0,0,3.78-6.34H180.92V77.9h16.26v.57a15.81,15.81,0,0,1-4.33,11.26A14.3,14.3,0,0,1,182,94.34,15.21,15.21,0,0,1,170.77,89.65Z"/><path class="cls-3" d="M206.72,62.89V94h-4.24V62.89Z"/><path class="cls-3" d="M239.58,94H235L233,89.57h-15.2L215.91,94h-4.59l14.13-31.8ZM225.45,72.07l-5.92,13.61h11.84ZM226.51,53h4.24l-4.24,7.07h-2.83Z"/><path class="cls-3" d="M255.22,82.28,261.49,94h-4.95l-5.43-10.65a6.88,6.88,0,0,1-1,0h-2V94h-4.24V62.89h5.65q5.48,0,8.44,2.87a10.8,10.8,0,0,1,1.39,12.79A9.64,9.64,0,0,1,255.22,82.28Zm-7.16-15.5V79.49h2.16a6.28,6.28,0,0,0,4.42-1.77,6.61,6.61,0,0,0-.09-9.36A7.14,7.14,0,0,0,250,66.77Z"/><path class="cls-3" d="M271,62.89V94h-4.24V62.89Z"/><path class="cls-3" d="M281,67.17a15.28,15.28,0,0,1,11.22-4.64,15.84,15.84,0,0,1,15.9,15.9A15.9,15.9,0,1,1,281,67.17Zm3,19.74a11.42,11.42,0,0,0,16.52,0,12.33,12.33,0,0,0,0-17,11.52,11.52,0,0,0-16.52,0,12.33,12.33,0,0,0,0,17Z"/></g></g></svg>